<svg
	viewBox="-512 -512 2048 2048"
	version="1.1"
	xmlns="http://www.w3.org/2000/svg"
	width="200"
	height="200"
	fill="#0004"
>
	<path
		d="M512 51.2c-28.16 0-51.2 23.04-51.2 51.2v140.8c0 28.16 23.04 51.2 51.2 51.2s51.2-23.04 51.2-51.2V102.4c0-28.16-23.04-51.2-51.2-51.2zM512 729.6c-28.16 0-51.2 23.04-51.2 51.2V921.6c0 28.16 23.04 51.2 51.2 51.2s51.2-23.04 51.2-51.2v-140.8c0-28.16-23.04-51.2-51.2-51.2zM893.44 673.28l-122.88-71.68c-25.6-15.36-56.32-5.12-69.12 17.92-15.36 25.6-5.12 56.32 17.92 69.12l122.88 71.68c25.6 15.36 56.32 5.12 69.12-17.92 12.8-25.6 5.12-56.32-17.92-69.12zM304.64 332.8l-122.88-71.68c-23.04-12.8-53.76-5.12-69.12 20.48-15.36 25.6-5.12 56.32 17.92 69.12l122.88 71.68c25.6 15.36 56.32 5.12 69.12-17.92 15.36-25.6 7.68-56.32-17.92-71.68zM770.56 422.4l122.88-71.68c25.6-15.36 33.28-46.08 17.92-69.12-15.36-25.6-46.08-33.28-69.12-17.92L719.36 332.8c-25.6 15.36-33.28 46.08-17.92 69.12 12.8 25.6 43.52 33.28 69.12 20.48zM253.44 601.6l-122.88 71.68c-25.6 15.36-33.28 46.08-17.92 69.12 15.36 25.6 46.08 33.28 69.12 17.92l122.88-71.68c25.6-15.36 33.28-46.08 17.92-69.12-12.8-23.04-43.52-30.72-69.12-17.92z"
	></path>
</svg>